<?xml version="1.0" encoding="UTF-8"?><svg xmlns="http://www.w3.org/2000/svg" viewBox="0 0 1889.64 226.71"><defs><style>.d{fill:#f2f2f2;}</style></defs><g id="a"/><g id="b"><g id="c"><g><path class="d" d="M1145.22,168.85v57.86h-50.02V49.34h45.24v17.49c5.92-8.58,13.52-14.4,23.01-17.8,22.77-8.17,57.33-3.42,71.22,32.58,8.98,23.28,8.54,46.96-1.58,69.88-10.46,23.7-35.34,36.82-60.99,32.96-9.76-1.47-17.66-6.39-24.15-13.71-.65-.73-1.31-1.46-1.97-2.19l-.77,.3Zm45.01-53.68l.88-.2c-1.36-5.94-2.09-12.11-4.23-17.76-3.4-8.98-10.52-13.42-20.19-13.45-9.51-.03-15.67,5.08-19.07,13.45-5.03,12.39-4.72,24.95,.68,37.16,3.3,7.47,8.93,12.29,17.55,12.61,9.13,.33,15.71-3.84,20.05-11.69,3.45-6.25,4.43-13.08,4.34-20.12Z"/><path class="d" d="M1477.13,180.93h-49.93V49.35h45.94v20c2.74-3.06,4.8-5.41,6.93-7.71,12.11-13.12,27.32-17.32,44.64-15.6,10.55,1.05,20.33,3.94,28.25,11.43,8.53,8.07,12.33,18.42,13.91,29.71,.68,4.84,.98,9.76,.99,14.65,.1,25.3,.05,50.6,.04,75.9,0,1-.11,2-.17,3.18h-50.11c0-1.18,0-2.38,0-3.58,0-21.65,.02-43.31-.03-64.96,0-3.18-.22-6.38-.59-9.54-1.55-13.35-10.13-19.61-23.37-17.26-8.1,1.44-13.15,6.21-14.82,14.09-1.01,4.75-1.41,9.7-1.44,14.57-.15,21.88-.07,43.76-.08,65.64,0,.22-.06,.45-.15,1.07Z"/><path class="d" d="M1733.95,180.97h-50.14c0-1.21,0-2.41,0-3.6,0-21.65,.02-43.31-.03-64.96,0-3.18-.22-6.38-.58-9.54-1.54-13.29-9.78-19.46-22.97-17.39-8.25,1.3-13.48,6.05-15.21,14.09-1.02,4.74-1.42,9.7-1.45,14.56-.15,20.97-.06,41.94-.06,62.91v3.84h-50.19V49.37h46.1v19.87c2.72-3.02,4.85-5.45,7.04-7.82,11.96-12.89,26.99-17.05,44.04-15.45,10.66,1,20.58,3.86,28.6,11.44,8.63,8.15,12.44,18.62,13.99,30.03,.66,4.84,.95,9.76,.96,14.65,.09,25.19,.05,50.37,.04,75.56,0,1.01-.09,2.02-.15,3.32Z"/><path class="d" d="M1742.51,49.25h50.71c7.85,27.32,15.7,54.63,23.84,82.96,.69-2.12,1.12-3.33,1.47-4.56,7.11-25.06,14.25-50.11,21.27-75.2,.69-2.45,1.65-3.4,4.36-3.37,15.04,.15,30.07,.07,45.48,.07-.3,1.15-.47,2.1-.78,3-15.88,45.54-31.76,91.08-47.7,136.59-1.54,4.39-3.49,8.64-5.36,12.91-6.67,15.32-18.8,23.34-35.06,24.33-13.37,.81-26.82,.16-40.51,.16v-35.5c3.24,0,6.41,.15,9.55-.04,3.96-.24,7.94-.54,11.84-1.22,4-.7,6.84-3.21,7.82-7.22,.42-1.72,.46-3.82-.14-5.45-15.08-41.23-30.28-82.42-45.45-123.63-.42-1.15-.81-2.31-1.34-3.84Z"/><path class="d" d="M1402.05,141.62c-3.31,11.62-9.79,21.08-19.45,28.36-11.23,8.46-24.16,12.52-37.91,14.25-16.19,2.03-32.13,1.01-47.33-5.34-23.99-10.02-36.89-28.42-39.56-54.06-1.46-14.07,.19-27.82,6.46-40.64,11.18-22.86,30.37-34.39,54.95-37.72,14.91-2.02,29.63-.66,43.68,4.88,23.65,9.32,36.28,27.69,41.12,51.9,1.51,7.53,1.9,15.29,2.86,23.46h-98.74c-1.15,9.44,5.31,19.95,14.59,24.11,10.69,4.8,24.86,2.26,30.31-8.34,.36-.7,1.61-1.34,2.44-1.34,15.27-.05,30.54,0,45.8,.04,.18,0,.37,.21,.77,.45Zm-94.1-41.56h47.82c-.31-13.33-11.52-23.38-25.23-22.89-13.95,.5-23.29,9.92-22.58,22.89Z"/></g><g><path class="d" d="M132.1,181.08c-6.75-26.3-13.41-52.3-20.08-78.29l-.59-.04c-6.36,26.05-12.72,52.09-19.09,78.2H43.2C28.86,137.27,14.48,93.45,0,49.35H49.31c6.76,27.08,13.52,54.18,20.29,81.28l.65-.03c6.68-27.09,13.36-54.18,20.05-81.33h43.55c6.61,27.13,13.21,54.24,19.82,81.35l.66-.06c3.48-13.74,6.96-27.49,10.43-41.23,3.18-12.57,6.39-25.14,9.49-37.73,.42-1.7,.99-2.5,2.9-2.49,14.81,.07,29.63,.05,44.44,.07,.32,0,.64,.13,1.26,.26-3.04,9.71-6.05,19.35-9.09,28.99-10.39,32.98-20.83,65.95-31.1,98.96-.9,2.9-2.09,3.82-5.15,3.78-15.03-.18-30.07-.08-45.42-.08Z"/><path class="d" d="M553.28,180.94h-50.38c0-1.23,0-2.43,0-3.63,0-57.78,.03-115.55-.07-173.33,0-3.17,.87-4.01,4-3.97,14.24,.16,28.49,.07,42.73,.08,1.12,0,2.24,.09,3.59,.15V64.91l1.25,1.01c.41-.88,.66-1.89,1.26-2.62,11.36-13.89,26.29-18.9,43.75-17.42,10.39,.88,20.25,3.42,28.36,10.42,9.41,8.12,13.38,19.03,15.07,30.91,.69,4.83,.96,9.76,.98,14.65,.09,25.3,.05,50.6,.04,75.9,0,1-.11,1.99-.19,3.16h-50.1c0-1.22,0-2.42,0-3.62,0-21.54,.02-43.08-.03-64.61,0-3.29-.22-6.6-.59-9.88-1.54-13.33-10.15-19.59-23.39-17.23-8.1,1.45-13.14,6.23-14.8,14.11-1,4.75-1.4,9.7-1.44,14.56-.15,22.1-.06,44.21-.06,66.7Z"/><path class="d" d="M377.52,126.74h-98.79c-1.26,12.95,9.95,25.44,23.26,26.28,9.08,.57,16.58-2.19,21.56-10.31,.49-.79,1.74-1.57,2.64-1.58,15.38-.1,30.75-.07,46.54-.07-1.46,6.44-4.26,11.94-7.88,17.02-8.21,11.52-19.58,18.58-32.92,22.53-21.35,6.32-42.75,6.74-63.64-1.68-24.13-9.73-37.05-28.21-39.82-53.84-1.53-14.18,.13-28.04,6.47-40.98,11.2-22.85,30.41-34.35,54.98-37.67,14.91-2.01,29.63-.64,43.68,4.91,23.64,9.34,36.25,27.73,41.07,51.95,1.5,7.53,1.89,15.28,2.84,23.44Zm-51.15-26.62c.1-13.35-11.98-23.88-26.08-22.92-13.59,.92-23.2,11.14-21.51,22.92h47.59Z"/><path class="d" d="M813.87,126.67h-99.22c.27,2.21,.39,4.08,.74,5.9,2.94,15.06,18.59,24.15,33.16,19.32,4.74-1.57,8.32-4.52,11.08-8.65,.64-.97,1.98-2.08,3.01-2.09,15.16-.12,30.31-.06,45.47-.04,.21,0,.42,.14,.95,.33-2.07,8.04-5.99,15.09-11.51,21.24-9.23,10.28-21.01,16.19-34.25,19.34-19.86,4.73-39.6,4.7-58.72-3.11-24.08-9.83-37-28.28-39.74-53.91-1.51-14.18,.16-28.04,6.51-40.97,11.23-22.84,30.45-34.31,55.03-37.6,14.91-2,29.63-.61,43.67,4.95,23.5,9.3,36.08,27.6,40.95,51.66,1.54,7.62,1.92,15.47,2.87,23.62Zm-98.97-26.57h47.84c-.01-12.68-11.03-23.08-24.08-22.96-14.63,.14-24.07,9.18-23.76,22.96Z"/><path class="d" d="M478.39,181.13c-16.12,.58-31.87,3.06-47.7,.72-15.58-2.31-23.67-10.34-25.73-26-.92-6.98-1.31-14.06-1.39-21.1-.19-17.2-.06-34.4-.06-51.61,0-1.24,0-2.47,0-4.12h-18.34v-29.77h18.9V8.87h49.72V48.99h24.55v29.8h-24.11c-.14,1.22-.31,1.97-.31,2.73,0,16.4,0,32.81,.02,49.21,0,1.71,.06,3.42,.23,5.12,.59,5.95,3.25,8.8,9.16,9.66,2.47,.36,4.98,.54,7.48,.57,2.47,.03,4.94-.22,7.6-.35v35.4Z"/><path class="d" d="M927.94,46.13v49.16c-5.24,0-10.37-.47-15.38,.09-16.96,1.88-25.75,10.58-26.77,27.63-.88,14.76-.56,29.59-.75,44.39-.05,4.42,0,8.84,0,13.47h-50.13V49.41h45.46v23.96l.78,.54c8.66-21.12,24.22-30.23,46.78-27.78Z"/></g><g><path class="d" d="M1070.12,87.13h-45.38c-.24-.89-.51-1.74-.68-2.6-.88-4.39-3.45-7.41-7.56-8.98-6.2-2.38-12.49-2.29-18.71-.06-3.53,1.27-5.62,3.87-5.82,7.68-.19,3.63,2.12,5.95,5.11,6.93,7.11,2.32,14.39,4.13,21.59,6.2,11.02,3.17,22.3,5.67,32.97,9.76,11.65,4.47,20.42,12.57,22.79,25.63,3.45,19.06-5.08,35.84-22.46,44.36-17.2,8.44-35.65,9.67-54.36,8.8-12.03-.56-23.74-2.82-34.51-8.58-12.82-6.86-20.42-17.46-22.57-31.88-.22-1.44-.22-2.92-.34-4.64h47.42c.18,.76,.4,1.51,.52,2.28,1.29,8.95,7.18,14.49,16.19,15.19,4.84,.38,9.58,.06,13.96-2.3,4.13-2.22,6.56-5.61,6.54-10.42-.03-4.73-3.14-7.48-7.08-8.63-8.71-2.55-17.62-4.41-26.4-6.76-7.9-2.11-15.94-3.94-23.53-6.88-14.83-5.75-23.49-16.46-23.68-32.93-.18-15.95,7.29-27.42,21.15-34.76,15.64-8.29,32.57-9.63,49.84-8.53,12.59,.8,24.9,2.9,35.98,9.47,11.88,7.04,17.93,17.64,19.03,31.66Z"/><rect class="d" x="983.17" y="9.23" width="50" height="40"/><rect class="d" x="983.17" y="181.23" width="50" height="40"/></g></g></g></svg>