<svg xmlns="http://www.w3.org/2000/svg" viewBox="0 0 738.43 72.9"><defs><style>.cls-1{fill:#0261c8;}.cls-2{fill:#009245;}</style></defs><g id="Layer_2" data-name="Layer 2"><g id="Layer_1-2" data-name="Layer 1"><path class="cls-1" d="M0,16.3a9.94,9.94,0,0,1,1.4-.57C16.49,14.67,16.49,14.67,20,29.34a52.23,52.23,0,0,0,3.38,10.59c1.72-8,3.43-16,5.12-23.9C43.48,14.27,43.47,14.27,46.42,28a53.72,53.72,0,0,0,3.62,12C51.87,32,53.7,24,55.57,15.85H71.94a22.48,22.48,0,0,1-.56,3.35c-3.75,11.88-7.6,23.73-11.27,35.63-.75,2.43-1.81,3.41-4.48,3.49-13.21.41-13.2.5-16.23-12.42A63.54,63.54,0,0,0,35.66,34c-1.7,6.89-3.54,13.74-5,20.66-.61,2.88-1.93,3.64-4.74,3.69-12.78.23-12.77.31-16.6-12.08C6.23,36.28,3.12,26.33,0,16.3Z"/><path d="M452,71.57H435.59V16.25l12.91-.1c1.64,0,2.54,1.49,3,2.93,5.7-5,12.24-6.09,18.93-3,7.19,3.33,9.95,9.93,10.71,17.39a39.8,39.8,0,0,1-.1,8.93C479.13,57.87,465.5,63.93,452,54.7ZM465.28,37.1a40.54,40.54,0,0,0-.53-4.66c-.82-3.55-2.72-6-6.76-5.95-3.77.08-5.87,2.35-6.31,5.78a37.59,37.59,0,0,0,0,9.3A6,6,0,0,0,458,47.33c3.65.05,5.79-2.1,6.58-5.56C465,40.17,465.09,38.51,465.28,37.1Z"/><path d="M242.24,58H226.09c0-6.46,0-12.7,0-18.94,0-2,0-4-.17-6-.26-2.83-1.14-5.28-4.6-5.49s-6,1.54-6.49,4.87a77.86,77.86,0,0,0-.48,10.92c-.07,4.65,0,9.29,0,14.39H198.51V0H214.1V17.83c6.33-6.76,13-6.14,16.91-4.86,4.45,1.59,10.85,7,11.13,14.12C242.54,37.2,242.24,47.34,242.24,58Z"/><path d="M644.81,58H629V15.62c4.45,0,8.35.13,13,.15a6.89,6.89,0,0,1,2.38,1.81c3.8-3.55,10-3.58,15.86-2.94,6.7.72,12.06,5.11,12.36,11.61.48,10.41.13,20.86.13,31.65H656.6c0-7.12,0-14,0-21,0-7.09-1.4-9.37-5.46-9.32-4.27,0-6.27,3-6.32,9.48C644.77,43.87,644.81,50.67,644.81,58Z"/><path d="M132.89,40.64H102.75c.81,6.69,13.9,8.71,18.43,2.45h11.9c-2.88,11.37-15.93,18.2-29.29,15.42-12.1-2.52-19-13.22-16.62-26s13.32-19.78,27.38-17.68C127.15,16.75,134.35,26.56,132.89,40.64Zm-15.17-8.85c-.82-4.64-3.27-6.73-7.18-6.71-4.15,0-7.2,1.83-7.89,6.71Z"/><path d="M148.85,15.8l6.66-.42V3h16.38V15.27l8.33.59v9.52l-7.95.54c0,5.7-.61,11.38.33,16.79.32,1.87,1.25,6.57,7.71,5.15V58.29c-5.31,0-10.45.43-15.49-.11-5.9-.63-8.81-4.46-9.13-11.19-.24-5.14-.06-10.29-.07-15.44,0-1.79,0-3.57,0-5.62l-6.77-.49Z"/><path d="M359.91,29.12c-2.35-.24-4-.5-5.6-.55-6.11-.18-9.69,2.4-10.17,8.5-.53,6.75-.12,13.57-.12,20.76H327.65V15.91h14.89l.89,5.11c3.4-4.4,7.42-7.29,12.85-6.29a5.27,5.27,0,0,1,3.47,3.45C360.24,21.58,359.91,25.1,359.91,29.12Z"/><path d="M308,40.75H277.85c.82,6.69,13.9,8.7,18.43,2.45h11.9c-2.88,11.37-15.93,18.2-29.29,15.42-12.1-2.52-18.95-13.22-16.62-26S275.59,12.88,289.65,15C302.25,16.86,309.45,26.67,308,40.75ZM292.83,31.9c-.82-4.64-3.28-6.73-7.19-6.71-4.15,0-7.2,1.82-7.89,6.71Z"/><path class="cls-2" d="M406.19,32.26c-4.12-1.25-8.49-1.69-12.63-2.9-1.26-.36-3.34-1.63-3.18-3.13s2.3-2.27,2.3-2.27a8.62,8.62,0,0,1,4.26-.62c3.82.09,5,4.42,6,4.44,1.93,0,9,.11,12.07.2-.44-6.06-2.46-9.24-7.63-11.23A36.53,36.53,0,0,0,401,14.94V7.2H389.4v7.67a35.09,35.09,0,0,0-6.88,1.94c-5.1,2-8,5.91-7.92,11.55s3.34,9,8.32,10.62c4.4,1.44,9.08,2.07,13.47,3.53,1.7.56,4.6,1.79,4.41,3.71S397,49,395.53,49s-4.6,0-6-1.53c-.68-.76-.77-3.1-2.53-3.13-4.28-.07-8.57-.1-13.16-.1.13,6.76,3.67,10.49,8.89,12.62a32.91,32.91,0,0,0,6.65,2v8H401v-8a37.49,37.49,0,0,0,7-2,12.32,12.32,0,0,0,8.14-9.37C417.73,40,414.49,34.79,406.19,32.26Z"/><path d="M545.1,40.85H515c.82,6.68,13.91,8.7,18.43,2.45h11.91C542.41,54.66,529.36,61.5,516,58.71c-12.1-2.52-18.95-13.22-16.63-25.95S512.7,13,526.76,15.07C539.36,17,546.56,26.76,545.1,40.85ZM529.93,32c-.82-4.64-3.28-6.73-7.19-6.72-4.15,0-7.19,1.83-7.89,6.72Z"/><path d="M581.06,58.85H565.2V16.48c4.45,0,8.35.13,13,.16a6.73,6.73,0,0,1,2.39,1.8c3.79-3.54,10-3.57,15.85-2.94,6.7.72,12.06,5.11,12.36,11.61.48,10.42.13,20.87.13,31.65h-16c0-7.12,0-14,0-21,0-7.09-1.4-9.36-5.46-9.32-4.27.05-6.26,3-6.32,9.48C581,44.74,581.06,51.53,581.06,58.85Z"/><path d="M691.12,16h15.72l3.9,11.53s3.92,8.55,5.79,12.55c1.83-8,3.66-15.92,5.53-24.08h16.37l-.56,3.36C734.12,31.27,727,51.92,726.13,54.75c-.74,2.42-6.44,18.15-6.44,18.15H704.12l5.56-19.51-5.56-10.77"/></g></g></svg>