<?xml version="1.0" standalone="no"?>
<!DOCTYPE svg PUBLIC "-//W3C//DTD SVG 20010904//EN"
 "http://www.w3.org/TR/2001/REC-SVG-20010904/DTD/svg10.dtd">
<svg version="1.0" xmlns="http://www.w3.org/2000/svg"
 width="1440.000000pt" height="1440.000000pt" viewBox="0 0 1440.000000 1440.000000"
 preserveAspectRatio="xMidYMid meet">
<metadata>
Created by potrace 1.14, written by Peter Selinger 2001-2017
</metadata>
<g transform="translate(0.000000,1440.000000) scale(0.100000,-0.100000)"
fill="#000000" stroke="none">
<path d="M10715 10665 l1 -775 -41 -12 c-22 -6 -49 -12 -60 -14 -11 -1 -78
-22 -150 -45 -71 -23 -133 -42 -137 -41 -5 1 -8 -3 -8 -10 0 -6 -3 -9 -6 -6
-7 8 -185 -70 -312 -137 -181 -96 -308 -189 -435 -320 -100 -101 -104 -106
-138 -155 -13 -19 -27 -37 -30 -40 -17 -16 -116 -202 -140 -265 -11 -29 -21
-58 -26 -70 -10 -30 -53 -206 -58 -239 -19 -122 -27 -396 -12 -396 5 0 4 -6
-2 -13 -6 -8 -9 -16 -6 -18 2 -3 7 -30 11 -60 32 -270 123 -487 292 -698 23
-29 66 -72 161 -161 9 -9 46 -36 81 -60 36 -25 67 -48 70 -51 10 -13 226 -122
299 -151 75 -29 296 -105 316 -108 3 0 23 -7 46 -15 23 -8 103 -31 178 -51 75
-20 168 -45 206 -55 39 -11 81 -22 95 -25 14 -3 68 -17 120 -31 52 -14 102
-27 110 -28 62 -15 440 -109 500 -126 41 -11 84 -22 95 -24 27 -5 52 -11 105
-25 25 -7 53 -14 62 -15 10 -2 23 -7 29 -10 5 -4 20 -8 32 -10 137 -22 277
-89 345 -165 85 -95 99 -275 32 -414 -96 -202 -350 -323 -665 -316 -44 1 -87
2 -95 2 -13 0 -61 7 -157 23 -13 2 -27 6 -33 10 -5 3 -19 8 -29 10 -26 5 -136
60 -174 87 -142 101 -238 269 -271 473 -11 67 -20 95 -30 96 -6 0 -433 1 -949
2 -617 1 -938 -1 -940 -8 -2 -5 -1 -24 3 -42 5 -19 3 -36 -3 -42 -6 -6 -7 -11
-1 -11 5 0 9 -10 10 -22 0 -36 14 -129 25 -178 5 -25 11 -52 13 -60 5 -26 27
-104 33 -120 4 -8 7 -18 8 -22 2 -5 3 -9 5 -10 1 -2 3 -10 5 -18 13 -65 164
-365 195 -390 3 -3 21 -26 38 -52 41 -59 210 -231 287 -292 33 -25 71 -55 85
-66 14 -11 30 -20 37 -20 6 0 13 -4 15 -9 3 -10 136 -90 186 -112 17 -7 32
-17 32 -21 0 -5 3 -7 8 -6 4 1 36 -11 72 -28 57 -27 243 -102 270 -109 3 0 37
-10 75 -22 84 -26 230 -63 265 -68 14 -2 26 -4 28 -6 1 -1 8 -2 15 -3 9 -1 12
-160 13 -756 1 -415 2 -758 3 -762 1 -5 450 -8 1000 -8 l998 0 0 770 c0 424 3
773 7 777 3 4 16 8 28 10 72 11 296 78 433 130 92 34 100 37 170 69 22 10 43
17 48 16 4 -1 7 2 7 7 0 8 21 17 58 26 8 2 21 10 30 17 10 8 29 19 44 26 15 6
44 22 65 35 21 13 42 24 47 25 5 0 12 4 15 9 3 5 35 29 71 55 102 72 208 169
298 273 49 57 152 208 152 223 0 6 4 12 8 14 7 3 67 120 71 140 1 4 13 34 27
65 15 32 28 66 30 76 2 9 6 25 9 35 2 9 10 42 18 72 14 60 17 69 18 73 35 115
31 524 -8 677 -3 14 -7 31 -9 39 -2 8 -6 26 -10 40 -4 14 -8 29 -9 34 -2 4 -4
9 -5 12 -1 3 -3 9 -4 14 0 5 -4 13 -8 17 -5 4 -8 17 -8 29 0 12 -3 25 -7 29
-5 4 -8 11 -9 14 -2 37 -137 263 -193 326 -38 43 -144 147 -178 176 -83 70
-239 164 -353 214 -36 16 -78 34 -95 42 -64 29 -496 171 -575 189 -8 2 -51 13
-95 25 -44 12 -84 23 -90 24 -5 2 -17 6 -25 9 -13 5 -53 14 -72 17 -4 1 -22 6
-40 11 -36 11 -134 38 -158 44 -8 2 -49 13 -90 25 -41 11 -82 22 -90 24 -8 2
-71 21 -140 40 -69 20 -136 39 -150 42 -14 3 -34 8 -45 11 -11 4 -23 8 -27 9
-5 1 -9 2 -10 4 -2 1 -11 3 -21 5 -22 4 -276 75 -297 83 -8 3 -20 6 -26 7 -19
5 -188 56 -239 74 -27 9 -68 27 -90 40 -39 23 -105 97 -109 123 -1 7 -4 18 -8
23 -20 32 9 245 34 245 4 0 8 6 8 13 0 18 54 72 110 110 25 17 45 30 45 28 0
-2 40 9 88 24 48 15 102 29 120 31 18 2 46 6 62 9 38 7 231 8 270 1 17 -2 53
-10 80 -16 28 -6 57 -13 65 -15 62 -14 165 -62 215 -100 98 -75 143 -148 180
-300 10 -38 22 -75 27 -81 10 -14 58 -25 58 -13 0 4 14 4 30 -1 17 -5 30 -5
30 0 0 4 15 5 33 1 17 -4 47 -4 65 0 17 3 32 3 32 -2 0 -5 11 -4 25 1 15 6 27
6 30 0 3 -6 15 -6 30 0 14 5 27 5 30 0 3 -5 18 -5 33 -1 15 5 36 5 47 1 11 -4
24 -5 29 -2 12 7 66 9 66 2 0 -7 69 -4 76 3 3 3 19 1 35 -3 16 -5 29 -5 29 0
0 5 13 5 30 0 17 -5 30 -5 30 0 0 5 13 5 30 0 19 -5 30 -5 30 1 0 6 5 7 10 4
6 -4 34 -6 63 -6 29 1 60 1 70 1 40 0 48 0 60 0 6 0 23 -1 37 -3 14 -2 35 0
47 5 12 4 25 3 28 -2 3 -6 15 -6 30 0 15 6 27 6 30 -1 4 -6 13 -6 23 0 9 5 26
5 39 0 15 -5 23 -5 23 2 0 6 5 7 10 4 10 -6 58 -7 115 -2 17 1 39 -1 51 -4 11
-4 27 -3 34 1 8 5 21 5 30 0 9 -5 22 -5 30 0 8 5 21 5 30 0 9 -5 22 -5 30 0 8
5 21 5 31 -1 11 -6 20 -5 24 1 3 6 15 6 30 0 15 -6 27 -6 30 0 3 6 15 6 30 0
14 -5 25 -6 25 -2 0 4 12 8 28 7 23 0 27 4 26 25 -2 48 -16 155 -21 163 -3 5
-7 21 -9 35 -12 96 -87 342 -106 350 -5 2 -8 9 -8 15 0 12 -40 99 -49 107 -4
3 -15 21 -25 42 -31 58 -131 188 -201 260 -73 75 -215 191 -278 227 -23 13
-44 26 -47 30 -13 16 -215 116 -335 166 -56 24 -176 66 -201 71 -11 2 -49 13
-83 24 -35 11 -66 18 -70 16 -3 -2 -15 2 -25 10 -18 13 -19 41 -19 794 l0 780
-1001 0 -1001 0 0 -775z"/>
<path d="M4120 9843 c0 -4 -111 -8 -247 -8 l-248 0 -23 -90 c-13 -49 -25 -101
-28 -115 -2 -14 -7 -32 -10 -40 -3 -8 -8 -24 -10 -36 -5 -26 -91 -377 -103
-424 -6 -19 -13 -48 -17 -65 -4 -16 -8 -34 -10 -40 -2 -5 -6 -26 -10 -45 -3
-19 -10 -43 -15 -52 -5 -10 -8 -18 -5 -18 3 0 -1 -21 -9 -47 -8 -27 -17 -61
-19 -78 -3 -16 -13 -55 -21 -85 -9 -30 -17 -64 -19 -75 -3 -18 -18 -79 -31
-127 -10 -36 -18 -68 -45 -183 -11 -49 -24 -97 -27 -105 -3 -8 -6 -18 -5 -21
1 -4 -7 -36 -18 -73 -10 -36 -17 -66 -15 -66 3 0 0 -11 -5 -25 -5 -14 -12 -36
-14 -48 -7 -30 -11 -47 -36 -147 -11 -47 -23 -96 -26 -109 -3 -14 -7 -28 -9
-31 -2 -4 -7 -22 -10 -41 -3 -19 -11 -52 -17 -74 -6 -22 -13 -44 -14 -50 -2
-5 -6 -23 -9 -40 -3 -16 -8 -38 -11 -47 -6 -20 -14 -55 -21 -88 -2 -14 -7 -32
-10 -40 -3 -8 -7 -19 -8 -25 -5 -19 -56 -230 -91 -370 -19 -77 -36 -149 -39
-160 -28 -127 -42 -170 -55 -173 -12 -2 -29 55 -78 250 -35 139 -66 266 -68
281 -2 15 -8 35 -13 45 -5 9 -9 20 -10 25 -1 4 -1 8 -2 10 0 1 -2 11 -3 22 -2
11 -24 103 -50 205 -26 102 -49 194 -51 205 -3 11 -7 29 -9 40 -3 11 -34 137
-71 280 -36 143 -67 269 -70 280 -2 11 -8 35 -14 53 -5 17 -7 32 -4 32 3 0 0
7 -7 15 -7 8 -10 15 -7 15 3 0 -6 39 -18 87 -13 48 -21 91 -19 95 3 4 0 8 -6
8 -7 0 -10 6 -7 13 2 6 0 22 -4 35 -8 21 -17 54 -23 92 -2 8 -6 22 -9 30 -5
12 -36 139 -52 210 -2 8 -22 88 -45 178 -23 90 -43 171 -45 180 -2 9 -4 17 -5
17 -1 0 -3 11 -6 24 -2 13 -16 69 -30 125 -14 55 -28 109 -30 119 -2 10 -6 27
-9 37 -3 10 -8 27 -10 37 -22 109 -52 203 -65 204 -64 4 -1944 3 -1950 -1 -6
-4 17 -87 55 -198 3 -7 5 -14 5 -17 0 -3 7 -21 15 -41 8 -20 15 -45 15 -55 0
-11 5 -19 12 -19 6 0 9 -3 6 -6 -4 -3 7 -45 24 -92 17 -48 31 -91 32 -97 1 -5
36 -111 76 -235 41 -124 74 -228 75 -232 0 -3 3 -10 7 -14 5 -4 8 -17 8 -29 0
-12 3 -25 7 -29 5 -4 8 -11 9 -14 0 -4 3 -14 7 -22 6 -17 41 -122 42 -130 1
-3 25 -77 54 -165 29 -88 54 -164 55 -170 2 -5 6 -17 9 -25 3 -8 18 -53 33
-100 43 -134 95 -294 101 -310 3 -8 7 -19 9 -25 1 -5 19 -59 39 -120 20 -60
38 -114 39 -120 2 -5 6 -17 9 -25 3 -8 20 -60 37 -115 17 -55 35 -109 40 -120
4 -11 43 -128 85 -260 43 -132 85 -260 94 -285 9 -25 16 -47 17 -50 2 -15 38
-127 44 -140 5 -8 31 -89 60 -180 29 -91 56 -174 60 -185 5 -11 27 -78 50
-150 22 -71 44 -137 47 -145 3 -8 7 -19 8 -25 2 -5 22 -66 45 -135 23 -69 43
-132 45 -140 2 -8 23 -73 48 -145 42 -126 67 -207 68 -222 0 -5 4 -12 9 -18 6
-8 52 -148 66 -200 1 -5 12 -34 23 -63 11 -29 20 -56 20 -60 1 -4 11 -36 23
-72 12 -36 23 -67 23 -70 6 -34 62 -187 69 -192 6 -4 21 -6 33 -3 13 2 25 0
28 -5 3 -5 16 -6 28 -1 26 9 189 7 204 -2 7 -4 14 -4 17 1 5 9 128 8 144 -2 6
-3 13 -3 15 1 6 10 199 9 214 0 6 -4 14 -4 17 1 6 10 179 8 195 -2 6 -4 11 -3
11 1 0 10 332 9 347 0 7 -4 14 -4 17 1 4 7 114 9 141 2 6 -1 12 -1 15 0 17 6
52 5 56 -2 3 -4 11 -5 17 -1 18 11 157 10 157 -2 0 -7 3 -7 8 0 8 11 121 14
138 3 6 -4 14 -4 18 0 4 4 38 7 74 7 l67 0 28 105 c15 58 29 114 31 125 2 11
9 43 16 70 17 71 20 83 24 103 2 9 14 55 26 102 22 87 26 103 35 143 2 12 8
36 12 52 4 17 7 32 8 35 1 3 4 14 8 25 3 11 8 31 11 45 4 21 22 94 52 215 3
11 7 31 10 45 7 36 62 258 74 300 13 46 107 437 113 470 3 14 11 48 20 75 8
28 15 53 16 58 0 4 1 8 2 10 1 4 7 32 12 57 3 14 10 45 17 70 7 25 14 53 16
62 2 10 6 27 9 38 3 11 7 29 10 40 3 11 7 28 9 38 2 9 9 37 15 62 7 25 14 54
16 65 3 11 16 65 30 120 14 55 28 111 29 125 2 14 5 26 6 28 6 6 24 95 22 105
-1 4 2 7 7 7 5 0 8 7 7 16 -1 9 8 55 21 102 13 48 26 96 27 107 8 52 28 105
39 105 11 0 38 -84 51 -160 2 -8 6 -22 9 -30 5 -14 85 -325 92 -360 2 -8 4
-15 5 -15 1 0 3 -9 5 -21 3 -11 12 -47 20 -80 9 -32 18 -70 21 -82 3 -13 12
-49 20 -80 20 -72 64 -241 69 -267 2 -11 9 -38 15 -60 6 -22 13 -49 16 -60 3
-11 6 -24 8 -30 2 -5 6 -23 10 -40 4 -16 10 -37 13 -45 3 -8 7 -24 8 -35 2
-11 11 -47 20 -80 8 -33 17 -67 19 -75 2 -8 12 -44 21 -80 9 -36 19 -72 20
-80 2 -8 4 -16 5 -17 2 -2 3 -11 5 -20 1 -10 4 -25 8 -33 3 -8 15 -55 27 -105
12 -49 30 -119 41 -155 10 -36 21 -80 24 -99 3 -19 8 -38 11 -43 6 -9 13 -39
19 -80 2 -15 6 -32 10 -38 3 -5 8 -18 10 -28 1 -9 8 -37 15 -62 7 -25 14 -52
16 -60 2 -8 17 -69 34 -135 17 -66 33 -127 34 -135 2 -8 8 -33 14 -55 6 -22
13 -50 15 -62 2 -12 6 -26 10 -29 4 -4 7 -18 7 -31 0 -14 5 -33 10 -43 6 -10
11 -32 13 -47 2 -16 6 -33 9 -38 3 -6 8 -23 12 -40 4 -16 11 -46 16 -65 l9
-35 949 0 c922 1 949 1 982 20 18 11 41 31 51 45 16 22 74 175 84 221 2 8 20
69 41 135 21 65 39 124 40 129 1 6 10 33 19 60 10 28 18 55 19 60 1 6 17 57
36 115 18 58 34 107 35 110 1 3 5 21 9 40 5 19 12 41 17 50 4 8 22 62 39 120
17 58 34 112 37 120 6 15 10 27 16 53 2 6 21 66 42 132 22 66 39 122 40 125 3
16 47 158 55 175 5 11 17 49 26 85 9 36 20 70 24 75 4 6 11 26 16 45 10 43 9
42 17 60 3 8 18 56 32 105 14 50 30 99 35 110 9 19 58 183 60 197 0 4 7 23 16
43 8 19 15 38 15 42 2 10 4 16 20 68 7 22 14 45 15 50 1 6 10 33 19 60 10 28
18 55 19 60 2 6 15 48 30 95 15 47 28 93 29 103 1 9 5 17 9 17 4 0 8 8 8 17 0
9 11 48 24 87 31 93 96 299 97 308 0 4 9 31 20 60 10 29 19 61 19 70 0 10 4
18 8 18 4 0 8 8 9 18 1 9 15 58 31 107 16 50 33 104 37 120 10 35 10 35 18 55
3 8 40 125 82 260 42 135 97 310 122 390 25 80 46 151 46 158 0 6 3 12 7 12 4
0 7 6 7 13 0 6 17 66 38 132 22 66 40 125 41 130 1 6 19 61 39 124 20 62 38
118 39 125 1 6 5 16 8 22 4 6 10 26 13 44 3 18 11 42 16 53 8 15 8 22 -2 28
-12 8 -168 15 -209 10 -16 -2 -81 -2 -185 0 -33 0 -87 0 -120 0 -33 0 -91 -1
-130 -1 -38 0 -88 0 -110 0 -22 0 -85 0 -140 0 -55 0 -104 0 -110 0 -5 0 -203
0 -438 2 l-429 2 -26 -30 c-15 -16 -29 -36 -31 -44 -2 -8 -8 -31 -13 -50 -5
-19 -11 -46 -14 -60 -3 -14 -12 -50 -20 -80 -8 -30 -18 -68 -21 -85 -7 -39 -9
-47 -16 -65 -6 -17 -65 -254 -70 -285 -2 -11 -7 -27 -10 -35 -4 -12 -18 -69
-19 -77 0 -2 -9 -35 -19 -75 -11 -40 -22 -82 -24 -93 -4 -18 -72 -284 -79
-310 -2 -5 -6 -28 -11 -50 -4 -22 -10 -44 -14 -50 -3 -5 -6 -14 -7 -20 -6 -30
-14 -64 -23 -92 -5 -18 -8 -33 -6 -33 3 0 0 -11 -5 -25 -5 -14 -12 -38 -15
-53 -8 -38 -13 -57 -15 -57 -1 0 -3 -7 -5 -15 -11 -55 -37 -159 -75 -305 -18
-66 -34 -128 -36 -137 -2 -10 -6 -26 -8 -35 -23 -95 -100 -399 -111 -438 -8
-27 -18 -66 -21 -85 -3 -19 -8 -42 -11 -50 -3 -8 -7 -19 -8 -25 -2 -5 -11 -39
-20 -75 -9 -36 -18 -72 -20 -80 -2 -8 -22 -90 -45 -182 -43 -168 -62 -204 -76
-140 -3 15 -8 36 -11 47 -3 11 -6 22 -6 25 0 3 -11 46 -24 95 -13 50 -25 99
-27 110 -2 11 -8 38 -14 60 -6 22 -14 54 -17 72 -3 18 -9 42 -14 55 -5 13 -8
25 -8 28 1 5 -13 63 -34 140 -14 55 -50 202 -55 230 -3 14 -14 59 -25 101 -11
42 -21 85 -23 95 -2 10 -13 55 -24 98 -12 44 -19 83 -16 88 3 4 0 8 -6 8 -6 0
-8 5 -5 10 3 6 3 16 -2 23 -4 6 -8 19 -10 27 -2 15 -16 72 -33 140 -5 19 -24
96 -41 170 -17 74 -35 144 -39 155 -5 11 -8 27 -8 35 0 8 -10 51 -21 95 -12
44 -23 89 -26 100 -2 11 -15 66 -29 122 -14 56 -27 112 -30 125 -3 13 -12 48
-20 80 -8 31 -18 67 -20 80 -3 12 -15 61 -26 108 -11 47 -23 94 -25 104 -2 10
-14 55 -26 100 -12 45 -22 90 -24 101 -1 11 -3 20 -4 20 -2 0 -4 9 -6 20 -2
11 -11 50 -20 85 -22 89 -34 140 -41 175 -3 16 -11 45 -17 65 l-12 35 -610 0
c-336 1 -616 4 -622 8 -7 5 -13 5 -13 0z"/>
</g>
</svg>
